<?xml version="1.0" encoding="UTF-8"?>
<svg version="1.2" baseProfile="tiny-ps" viewBox="0 0 270 270" xmlns="http://www.w3.org/2000/svg">
<title>Tristan</title>
<circle cx="135" cy="135" r="135" fill="#000000"/>
<g transform="translate(0 25)">
<g fill="#ff98d7" transform="matrix(.1 0 0 -.1 0 270)"><path d="M720 1570V940h1260v1260H720v-630z"/></g>
<g fill="#e063b0" transform="matrix(.1 0 0 -.1 0 270)"><path d="M720 1570V940h1260v1260H720v-630zm800 390v-50h-120v-740h-100v739l-62 3-63 3-3 33c-2 19-1 40 2 48l5 14h341v-50z"/></g>
<g fill="#8b0554" transform="matrix(.1 0 0 -.1 0 270)"><path d="M720 1570V940h1260v1260H720v-630zm810 390v-50h-120v-740h-120l-2 368-3 367-57 3-58 3v99h360v-50z"/></g>
<g fill="#4e002b" transform="matrix(.1 0 0 -.1 0 270)"><path d="M720 1570V940h1260v1260H720v-630zm811 439c11-17 12-80 1-95-4-6-24-17-44-23-21-7-41-18-45-24l-8-12-6-320c-4-176-10-332-14-347l-7-28h-116l-7 18-8 17-6 332-7 333-9 9c-6 6-28 16-50 23l-40 13v110l35 7c19 4 99 5 178 4l144-2 9-15z"/></g>
<g fill="#250012" transform="matrix(.1 0 0 -.1 0 270)"><path d="M720 1570V940h1260v1260H720v-630zm768 478 53-20 10-25c14-37 11-75-10-113-10-19-25-57-34-85l-17-50-9-220-9-220-20-75-21-74-17-13-18-13h-96l-18 18-19 19-21 80-22 79v130c0 71-5 173-10 226l-9 97-31 67-30 67v73l14 20 15 20 58 17c32 9 69 18 83 21 42 6 122-6 178-26z"/></g>
<g fill="#040001" transform="matrix(.1 0 0 -.1 0 270)"><path d="M720 1570V940h1260v1260H720v-630zm776 550c16-6 44-23 62-36l32-25 15-36 15-35v-109l-16-37c-20-49-44-209-44-297 0-39-6-122-14-185l-14-115-20-45c-23-53-53-83-106-105l-40-17-42 7-42 6-45 39-45 40-20 87-21 88-11 145c-6 80-12 172-15 205l-4 60-22 70-22 70v101l16 29c19 37 51 67 96 90l34 17 66 7 66 6 56-7c31-4 69-12 85-18z"/></g>
</g>
</svg>
