<?xml version="1.0" encoding="UTF-8"?>
<svg xmlns="http://www.w3.org/2000/svg" 
     baseProfile="tiny" 
     version="1.2" 
     viewBox="0 0 270 270">
<title>Tristan Logo</title>
<path d="M0 0 C41.58 0 83.16 0 126 0 C126 41.58 126 83.16 126 126 C84.42 126 42.84 126 0 126 C0 84.42 0 42.84 0 0 Z " fill="#0E0008" transform="translate(72,50)"/>
<path d="M0 0 C11.88 0 23.76 0 36 0 C36 3.3 36 6.6 36 10 C32.04 10 28.08 10 24 10 C24 34.75 24 59.5 24 85 C20.04 85 16.08 85 12 85 C12 60.25 12 35.5 12 10 C8.04 10 4.08 10 0 10 C0 6.7 0 3.4 0 0 Z " fill="#F98ECF" transform="translate(117,69)"/>
<path d="M0 0 C3.08891564 1.52670543 6.31227311 1.77124377 9.69921875 2.25 C12.68004231 3.21540863 13.52613681 4.29816746 15.0390625 7.0078125 C15.55370982 12.41160936 15.46552825 15.60235654 12.0390625 20.0078125 C10.74326603 21.37765448 9.41913501 22.7229174 8.0390625 24.0078125 C8.5340625 24.9978125 8.5340625 24.9978125 9.0390625 26.0078125 C8.04296875 27.49609375 8.04296875 27.49609375 6.6015625 29.3203125 C3.36959467 34.1638125 3.66853283 38.48368052 3.9609375 44.15234375 C4.0390625 47.0078125 4.0390625 47.0078125 3.0390625 50.0078125 C3.6990625 50.0078125 4.3590625 50.0078125 5.0390625 50.0078125 C5.3690625 49.0178125 5.6990625 48.0278125 6.0390625 47.0078125 C6.23333885 64.40633901 6.23333885 64.40633901 5.0390625 73.0078125 C4.89339844 74.09191406 4.74773437 75.17601562 4.59765625 76.29296875 C3.06751966 86.97982828 3.06751966 86.97982828 1.0390625 92.0078125 C-2.47153336 94.53870719 -4.31427999 95.05165369 -8.6484375 94.7578125 C-11.9609375 94.0078125 -11.9609375 94.0078125 -14.9609375 93.0078125 C-17.70494358 87.44487868 -17.4614399 81.20871583 -17.6484375 75.1328125 C-17.6889624 73.9478418 -17.7294873 72.76287109 -17.77124023 71.54199219 C-18.2426159 54.03121803 -17.54475262 36.50902778 -16.9609375 19.0078125 C-19.9309375 19.0078125 -22.9009375 19.0078125 -25.9609375 19.0078125 C-25.9609375 18.3478125 -25.9609375 17.6878125 -25.9609375 17.0078125 C-26.9509375 17.3378125 -27.9409375 17.6678125 -28.9609375 18.0078125 C-30.3612167 12.54672361 -29.38799384 8.31504682 -27.9609375 3.0078125 C-21.52850507 1.11592061 -21.52850507 1.11592061 -18.3359375 0.5078125 C-15.91247292 0.10234242 -15.91247292 0.10234242 -13.7109375 -1.1171875 C-9.24687414 -2.53757129 -4.21094474 -2.13063738 0 0 Z M-24.9609375 6.0078125 C-24.9609375 9.3078125 -24.9609375 12.6078125 -24.9609375 16.0078125 C-21.0009375 16.0078125 -17.0409375 16.0078125 -12.9609375 16.0078125 C-12.9609375 40.7578125 -12.9609375 65.5078125 -12.9609375 91.0078125 C-9.0009375 91.0078125 -5.0409375 91.0078125 -0.9609375 91.0078125 C-0.9609375 66.2578125 -0.9609375 41.5078125 -0.9609375 16.0078125 C2.9990625 16.0078125 6.9590625 16.0078125 11.0390625 16.0078125 C11.0390625 12.7078125 11.0390625 9.4078125 11.0390625 6.0078125 C-0.8409375 6.0078125 -12.7209375 6.0078125 -24.9609375 6.0078125 Z " fill="#4D002D" transform="translate(141.9609375,62.9921875)"/>
<path d="M0 0 C0.33 0 0.66 0 1 0 C1 3.3 1 6.6 1 10 C4.96 10 8.92 10 13 10 C13 34.42 13 58.84 13 84 C8.05697685 76.58546527 9.80837245 64.26127895 9.68359375 55.578125 C9.66281265 54.35212585 9.64203156 53.12612671 9.62062073 51.86297607 C9.55585377 47.99203451 9.49658316 44.12103205 9.4375 40.25 C9.39424529 37.60676483 9.35062893 34.96353556 9.30664062 32.3203125 C9.2002484 25.88027049 9.09835437 19.44016951 9 13 C6.03 13 3.06 13 0 13 C-1.25069801 10.49860398 -1.13302467 8.72607309 -1.125 5.9375 C-1.12757812 5.03902344 -1.13015625 4.14054687 -1.1328125 3.21484375 C-1 1 -1 1 0 0 Z " fill="#7D044C" transform="translate(116,69)"/>
<path d="M0 0 C3.96 0 7.92 0 12 0 C10.02 0.99 10.02 0.99 8 2 C7.38932856 3.85744207 7.38932856 3.85744207 7 6 C6.50423965 6.7543483 6.00847931 7.50869659 5.49769592 8.28590393 C3.80512116 11.35315572 3.61761411 13.13779463 3.59936523 16.61303711 C3.57935707 18.26516457 3.57935707 18.26516457 3.5589447 19.95066833 C3.55882889 21.13097122 3.55871307 22.31127411 3.55859375 23.52734375 C3.54538589 24.74901749 3.53217804 25.97069122 3.51856995 27.22938538 C3.47768403 31.13211341 3.45600852 35.03460629 3.4375 38.9375 C3.41369329 42.83675101 3.38552899 46.73578114 3.34571838 50.63490295 C3.32141832 53.0599855 3.30651353 55.48518484 3.30210876 57.91038513 C3.29192215 59.0149556 3.28173553 60.11952606 3.27124023 61.25756836 C3.26482765 62.7072123 3.26482765 62.7072123 3.25828552 64.18614197 C2.96726501 67.35662707 2.10749398 70.02455862 1 73 C0.67 73 0.34 73 0 73 C0 48.91 0 24.82 0 0 Z " fill="#780248" transform="translate(141,79)"/>
<path d="M0 0 C0 0.33 0 0.66 0 1 C-0.61931396 1.01981934 -1.23862793 1.03963867 -1.87670898 1.06005859 C-4.73067389 1.15635231 -7.58400857 1.26560097 -10.4375 1.375 C-11.41138672 1.4059375 -12.38527344 1.436875 -13.38867188 1.46875 C-23.33241365 1.41598813 -23.33241365 1.41598813 -32 5 C-32.28221172 7.58022142 -32.44820197 10.16030185 -32.62109375 12.75 C-32.74613281 13.4925 -32.87117188 14.235 -33 15 C-33.66 15.33 -34.32 15.66 -35 16 C-36.4002792 10.53891111 -35.42705634 6.30723432 -34 1 C-27.56756757 -0.89189189 -27.56756757 -0.89189189 -24.375 -1.5 C-21.95153542 -1.90547008 -21.95153542 -1.90547008 -19.75 -3.125 C-12.98244664 -5.27831243 -6.28283252 -2.62736633 0 0 Z " fill="#47002B" transform="translate(148,65)"/>
<path d="M0 0 C1.11310547 0.00451172 2.22621094 0.00902344 3.37304688 0.01367188 C6.10292101 0.02538807 8.83268174 0.04179301 11.5625 0.0625 C11.5625 0.7225 11.5625 1.3825 11.5625 2.0625 C12.5525 2.3925 13.5425 2.7225 14.5625 3.0625 C2.6825 3.0625 -9.1975 3.0625 -21.4375 3.0625 C-16.55828594 -1.81671406 -6.42112885 -0.04953987 0 0 Z " fill="#7E094E" transform="translate(138.4375,65.9375)"/>
<path d="M0 0 C1.2065625 0.0309375 1.2065625 0.0309375 2.4375 0.0625 C1.4475 0.7225 0.4575 1.3825 -0.5625 2.0625 C-1.5605086 6.11299514 -1.70641076 10.09302854 -1.76782227 14.25146484 C-1.78776749 15.45225677 -1.80771271 16.65304871 -1.82826233 17.89022827 C-1.84497482 19.17168732 -1.86168732 20.45314636 -1.87890625 21.7734375 C-1.89950309 23.11008304 -1.92050024 24.44672246 -1.94187927 25.78335571 C-1.99681826 29.28492247 -2.04635056 32.78654525 -2.09472656 36.28820801 C-2.14514861 39.86797005 -2.20072611 43.44765172 -2.25585938 47.02734375 C-2.3630958 54.03899271 -2.46461598 61.05071441 -2.5625 68.0625 C-2.8925 68.0625 -3.2225 68.0625 -3.5625 68.0625 C-3.58562611 59.34405997 -3.60341646 50.62563044 -3.61431217 41.90716648 C-3.61954041 37.85924258 -3.62663699 33.81133959 -3.63793945 29.76342773 C-3.64877043 25.86014029 -3.65477728 21.95687301 -3.65737724 18.0535717 C-3.65923111 16.56116353 -3.662851 15.06875652 -3.66823006 13.57635689 C-3.67544331 11.49301861 -3.67649083 9.40976469 -3.67602539 7.32641602 C-3.678246 6.13838882 -3.68046661 4.95036163 -3.68275452 3.72633362 C-3.52379911 0.20521219 -3.51817265 0.08580909 0 0 Z " fill="#710044" transform="translate(145.5625,79.9375)"/>
<path d="M0 0 C0.33 0 0.66 0 1 0 C1.02710123 2.5625718 1.04688771 5.12485365 1.0625 7.6875 C1.07087891 8.40873047 1.07925781 9.12996094 1.08789062 9.87304688 C1.10543632 13.71555382 0.93524221 17.26639526 0 21 C-0.66 21 -1.32 21 -2 21 C-2.22424141 13.63740707 -1.90120099 7.12950371 0 0 Z " fill="#450029" transform="translate(147,110)"/>
<path d="M0 0 C0 0.66 0 1.32 0 2 C-0.94875 2.103125 -1.8975 2.20625 -2.875 2.3125 C-6.29107501 2.68539295 -6.29107501 2.68539295 -8 6 C-8.36677679 8.60911673 -8.50381001 11.19072265 -8.65625 13.8203125 C-8.7696875 14.53960937 -8.883125 15.25890625 -9 16 C-9.66 16.33 -10.32 16.66 -11 17 C-12.4002792 11.53891111 -11.42705634 7.30723432 -10 2 C-3.375 0 -3.375 0 0 0 Z " fill="#3C0023" transform="translate(124,64)"/>
<path d="M0 0 C1.2065625 0.0309375 1.2065625 0.0309375 2.4375 0.0625 C1.4475 0.7225 0.4575 1.3825 -0.5625 2.0625 C-1.36342254 4.70941668 -1.36342254 4.70941668 -1.75 7.6875 C-1.90855469 8.69039062 -2.06710938 9.69328125 -2.23046875 10.7265625 C-2.34003906 11.49742188 -2.44960937 12.26828125 -2.5625 13.0625 C-2.8925 13.0625 -3.2225 13.0625 -3.5625 13.0625 C-3.58936553 11.08340602 -3.60883375 9.10421029 -3.625 7.125 C-3.63660156 6.02285156 -3.64820313 4.92070313 -3.66015625 3.78515625 C-3.52747618 0.086036 -3.52747618 0.086036 0 0 Z " fill="#80004C" transform="translate(145.5625,79.9375)"/>
</svg>
